<svg width="24" height="24" viewBox="0 0 24 24" fill="none" xmlns="http://www.w3.org/2000/svg">
<g id="icons">
<path id="Vector" d="M14.0042 3.34382L22.2445 17.5934C22.2445 17.5934 22.2445 17.5934 22.2446 17.5935C22.4503 17.9439 22.5596 18.3426 22.5615 18.749C22.5633 19.1554 22.4576 19.5551 22.255 19.9074C22.0524 20.2598 21.7601 20.5522 21.408 20.7551C21.0558 20.958 20.6562 21.064 20.2497 21.0625M14.0042 3.34382L20.25 21M14.0042 3.34382C14.0041 3.34379 14.0041 3.34375 14.0041 3.34372C13.8013 2.99152 13.5093 2.69898 13.1575 2.49556C12.8057 2.29211 12.4064 2.185 12 2.185C11.5936 2.185 11.1943 2.29211 10.8424 2.49556C10.4906 2.69898 10.1986 2.99152 9.99587 3.34372C9.99586 3.34375 9.99584 3.34379 9.99582 3.34382L1.75546 17.5934C1.75543 17.5934 1.7554 17.5935 1.75536 17.5935C1.54966 17.944 1.44034 18.3426 1.4385 18.749C1.43666 19.1554 1.54241 19.5551 1.74501 19.9074C1.9476 20.2598 2.23983 20.5522 2.59201 20.7551C2.94419 20.958 3.34379 21.064 3.75022 21.0625M14.0042 3.34382L3.74998 21M20.2497 21.0625L20.25 21M20.2497 21.0625H20.25V21M20.2497 21.0625H3.75022M20.25 21H3.74998M3.75022 21.0625L3.74998 21M3.75022 21.0625H3.74998V21M11.3125 9.75C11.3125 9.56766 11.3849 9.3928 11.5138 9.26386C11.6428 9.13493 11.8176 9.0625 12 9.0625C12.1823 9.0625 12.3572 9.13493 12.4861 9.26386C12.6151 9.3928 12.6875 9.56766 12.6875 9.75V13.5C12.6875 13.6823 12.6151 13.8572 12.4861 13.9861C12.3572 14.1151 12.1823 14.1875 12 14.1875C11.8176 14.1875 11.6428 14.1151 11.5138 13.9861C11.3849 13.8572 11.3125 13.6823 11.3125 13.5V9.75ZM12 17.9375C11.7898 17.9375 11.5844 17.8752 11.4097 17.7584C11.235 17.6417 11.0988 17.4757 11.0184 17.2816C10.9379 17.0875 10.9169 16.8738 10.9579 16.6677C10.9989 16.4616 11.1001 16.2723 11.2487 16.1237C11.3973 15.9751 11.5866 15.8739 11.7927 15.8329C11.9988 15.7919 12.2124 15.813 12.4066 15.8934C12.6007 15.9738 12.7667 16.11 12.8834 16.2847C13.0002 16.4594 13.0625 16.6649 13.0625 16.875C13.0625 17.1568 12.9505 17.427 12.7513 17.6263C12.552 17.8256 12.2818 17.9375 12 17.9375Z" fill="#FF7474" stroke="#FF7474" stroke-width="0.125"/>
</g>
</svg>
