<svg width="25" height="24" viewBox="0 0 25 24" fill="none" xmlns="http://www.w3.org/2000/svg">
<path d="M12.5 2.25C10.5716 2.25 8.68657 2.82183 7.08319 3.89317C5.47982 4.96451 4.23013 6.48726 3.49218 8.26884C2.75422 10.0504 2.56114 12.0108 2.93735 13.9021C3.31355 15.7934 4.24215 17.5307 5.60571 18.8943C6.96928 20.2579 8.70656 21.1865 10.5979 21.5627C12.4892 21.9389 14.4496 21.7458 16.2312 21.0078C18.0127 20.2699 19.5355 19.0202 20.6068 17.4168C21.6782 15.8134 22.25 13.9284 22.25 12C22.2473 9.41498 21.2192 6.93661 19.3913 5.10872C17.5634 3.28084 15.085 2.25273 12.5 2.25ZM20.7153 11.25H16.9813C16.8491 8.58187 16.0184 6.04969 14.6263 4.03125C16.2568 4.469 17.7142 5.39535 18.8027 6.68582C19.8912 7.97629 20.5587 9.56903 20.7153 11.25ZM12.5 20.2397C10.7441 18.3394 9.67907 15.6459 9.52157 12.75H15.4784C15.3209 15.6441 14.2559 18.3394 12.5 20.2397ZM9.52157 11.25C9.67907 8.35594 10.7403 5.66062 12.5 3.76031C14.2559 5.66062 15.3209 8.35406 15.4784 11.25H9.52157ZM10.3738 4.03125C8.98157 6.04969 8.15094 8.58187 8.01875 11.25H4.28469C4.44133 9.56903 5.10876 7.97629 6.19728 6.68582C7.2858 5.39535 8.74325 4.469 10.3738 4.03125ZM4.28469 12.75H8.01875C8.15094 15.4181 8.98157 17.9503 10.3738 19.9688C8.74325 19.531 7.2858 18.6046 6.19728 17.3142C5.10876 16.0237 4.44133 14.431 4.28469 12.75ZM14.6263 19.9688C16.0184 17.9475 16.8491 15.4153 16.9813 12.75H20.7153C20.5587 14.431 19.8912 16.0237 18.8027 17.3142C17.7142 18.6046 16.2568 19.531 14.6263 19.9688Z" fill="#3A21D5"/>
</svg>
