<svg width="25" height="25" viewBox="0 0 25 25" fill="none" xmlns="http://www.w3.org/2000/svg">
<path d="M12.5 21.5C17.4706 21.5 21.5 17.4706 21.5 12.5C21.5 7.52944 17.4706 3.5 12.5 3.5C7.52944 3.5 3.5 7.52944 3.5 12.5C3.5 17.4706 7.52944 21.5 12.5 21.5Z" stroke="#050142" stroke-width="1.125" stroke-miterlimit="10"/>
<path d="M12.5001 18.4175C15.7682 18.4175 18.4176 15.7682 18.4176 12.5C18.4176 9.23187 15.7682 6.58252 12.5001 6.58252C9.23191 6.58252 6.58255 9.23187 6.58255 12.5C6.58255 15.7682 9.23191 18.4175 12.5001 18.4175Z" stroke="#050142" stroke-width="1.125" stroke-miterlimit="10"/>
<path d="M3.5 12.5H6.5825" stroke="#050142" stroke-width="1.125" stroke-miterlimit="10"/>
<path d="M18.4174 12.5H21.5" stroke="#050142" stroke-width="1.125" stroke-miterlimit="10"/>
<path d="M12.5 3.5V6.5825" stroke="#050142" stroke-width="1.125" stroke-miterlimit="10"/>
<path d="M12.5 18.4175V21.5" stroke="#050142" stroke-width="1.125" stroke-miterlimit="10"/>
<path d="M6.13254 6.13232L8.31504 8.31482" stroke="#050142" stroke-width="1.125" stroke-miterlimit="10"/>
<path d="M16.6849 16.6851L18.8674 18.8676" stroke="#050142" stroke-width="1.125" stroke-miterlimit="10"/>
<path d="M6.13254 18.8676L8.31504 16.6851" stroke="#050142" stroke-width="1.125" stroke-miterlimit="10"/>
<path d="M16.6849 8.31482L18.8674 6.13232" stroke="#050142" stroke-width="1.125" stroke-miterlimit="10"/>
</svg>
