<svg width="50" height="50" viewBox="0 0 50 50" fill="none" xmlns="http://www.w3.org/2000/svg">
<path d="M41.3911 1H9.39111C4.97284 1 1.39111 4.58172 1.39111 9V41C1.39111 45.4183 4.97284 49 9.39111 49H41.3911C45.8094 49 49.3911 45.4183 49.3911 41V9C49.3911 4.58172 45.8094 1 41.3911 1Z" fill="white" stroke="#050142" stroke-miterlimit="10"/>
<path d="M45.6511 16.88V39.26C45.6511 42.5737 42.9648 45.26 39.6511 45.26H11.1411C7.8274 45.26 5.14111 42.5737 5.14111 39.26V33.44C25.2211 33.44 34.3811 29.94 45.6511 16.88Z" fill="url(#paint0_linear_200_4785)" stroke="#050142" stroke-linejoin="bevel"/>
<path d="M5.14119 33.4401L4.97119 33.5101" stroke="#050142" stroke-miterlimit="10"/>
<defs>
<linearGradient id="paint0_linear_200_4785" x1="25.3961" y1="16.88" x2="25.3961" y2="45.28" gradientUnits="userSpaceOnUse">
<stop offset="0.201099" stop-color="#55FF8F"/>
<stop offset="1" stop-color="white" stop-opacity="0"/>
</linearGradient>
</defs>
</svg>
