<svg width="25" height="25" viewBox="0 0 25 25" fill="none" xmlns="http://www.w3.org/2000/svg">
<g id="Icons">
<path id="Vector" d="M22.8148 8.69457L17.1898 3.06957C17.1201 2.99984 17.0374 2.94452 16.9464 2.90678C16.8553 2.86904 16.7577 2.84961 16.6592 2.84961C16.5606 2.84961 16.463 2.86904 16.372 2.90678C16.2809 2.94452 16.1982 2.99984 16.1285 3.06957L4.01324 15.1849C3.22604 15.9721 2.7838 17.0397 2.7838 18.153C2.7838 19.2663 3.22604 20.3339 4.01324 21.1211C4.80043 21.9083 5.8681 22.3506 6.98136 22.3506C8.09462 22.3506 9.16229 21.9083 9.94949 21.1211L20.4392 10.6315L22.5214 9.9377C22.6427 9.89733 22.7518 9.82659 22.8381 9.73221C22.9244 9.63783 22.9852 9.52294 23.0146 9.39846C23.044 9.27398 23.0411 9.14404 23.0061 9.02101C22.9711 8.89797 22.9053 8.78592 22.8148 8.69551V8.69457ZM8.88824 20.0599C8.37937 20.5503 7.69836 20.8214 6.99167 20.8149C6.28497 20.8084 5.60907 20.5248 5.10935 20.025C4.60962 19.5253 4.32599 18.8494 4.31947 18.1427C4.31295 17.436 4.58406 16.755 5.07449 16.2461L7.77449 13.5461C8.56855 13.2743 9.81355 13.1711 11.4373 14.0149C12.431 14.5343 13.3292 14.7649 14.1148 14.8333L8.88824 20.0599ZM19.797 9.26364C19.6865 9.30035 19.586 9.3623 19.5035 9.44457L15.7939 13.1543C14.9998 13.4261 13.7548 13.5293 12.131 12.6855C11.1373 12.1661 10.2392 11.9355 9.45355 11.8671L16.6592 4.66051L20.8957 8.89708L19.797 9.26364Z" fill="#3A21D5"/>
</g>
</svg>
