<svg width="250" height="294" viewBox="0 0 250 294" fill="none" xmlns="http://www.w3.org/2000/svg">
<path d="M387.94 -6.39034C388.557 -5.53188 389.163 -4.66341 389.757 -3.78491C400.621 12.3475 406.404 31.3233 406.369 50.7274C406.386 104.952 362.059 148.927 307.399 148.927C252.739 148.927 208.429 104.952 208.429 50.7059C208.397 28.1655 216.21 6.30574 230.547 -11.1763" stroke="#050142" stroke-width="1.5" stroke-miterlimit="10"/>
<path d="M87.8289 321.047C87.8289 321.047 158.597 247.222 176.291 330.27C193.985 413.317 85.9697 427.143 150.22 476.943" stroke="#050142" stroke-width="1.5" stroke-miterlimit="10"/>
<path d="M105.9 328.773C137.873 348.507 180.059 338.52 200.124 306.467C220.189 274.413 210.536 232.431 178.563 212.696C146.589 192.962 104.404 202.949 84.3389 235.002C64.2738 267.056 73.9271 309.038 105.9 328.773Z" fill="white"/>
<path d="M157.652 241.171C157.652 241.171 231.392 287.604 300.328 175.971" stroke="#050142" stroke-width="1.5" stroke-miterlimit="10"/>
<path d="M285.77 238.74C285.77 238.74 199.784 385.786 217.349 557.644" stroke="#050142" stroke-width="1.5" stroke-miterlimit="10"/>
<path d="M243.141 236.829C239.349 244.545 245.577 252.772 254.174 252.891L343.838 254.13C352.355 254.248 358.801 246.335 355.377 238.537C345.006 214.914 324.302 198.725 300.092 198.394C275.937 198.064 254.558 213.599 243.141 236.829Z" fill="#3A21D5"/>
<path d="M300.189 198.389C328.424 198.389 351.313 175.661 351.313 147.625C351.313 119.588 328.424 96.8601 300.189 96.8601C271.954 96.8601 249.066 119.588 249.066 147.625C249.066 175.661 271.954 198.389 300.189 198.389Z" fill="white"/>
<path d="M258.936 115.596L258.932 115.593C251.072 108.086 238.571 108.328 231.011 116.134L186.519 162.07C178.959 169.876 179.202 182.289 187.063 189.795L187.066 189.798C194.927 197.305 207.428 197.063 214.988 189.258L259.48 143.321C267.04 135.516 266.796 123.103 258.936 115.596Z" fill="#3A21D5"/>
<path d="M138.953 20.0628V-38.5115" stroke="#050142" stroke-width="1.5" stroke-miterlimit="10"/>
<path d="M138.953 89.0491C159.948 89.0491 176.968 72.1488 176.968 51.3012C176.968 30.4536 159.948 13.5533 138.953 13.5533C117.958 13.5533 100.938 30.4536 100.938 51.3012C100.938 72.1488 117.958 89.0491 138.953 89.0491Z" fill="white"/>
</svg>
