<svg width="95" height="20" viewBox="0 0 95 20" fill="none" xmlns="http://www.w3.org/2000/svg">
<g clip-path="url(#clip0_3096_10521)">
<path d="M18.4886 12.6713H4.01843V14.207H18.4886V12.6713Z" fill="#050142"/>
<path d="M14.4702 16.7499H0V18.2856H14.4702V16.7499Z" fill="#050142"/>
<path d="M14.4711 0H0V1.53572H14.4711V0Z" fill="#050142"/>
<path d="M22.4488 8.21423H7.97864V9.74995H22.4488V8.21423Z" fill="#050142"/>
<path d="M18.4895 4.24561H4.01843V5.78133H18.4895V4.24561Z" fill="#050142"/>
</g>
<g clip-path="url(#clip1_3096_10521)">
<path d="M32.8464 3.07417V7.90305H39.4218V9.3626H32.8464V15.938H31.0603V1.61462H40.6191V3.07417H32.8464Z" fill="#050142"/>
<path d="M42.3854 1.61462H44.028V15.9429H42.3854V1.61462Z" fill="#050142"/>
<path d="M46.8481 5.63208H48.4907V13.0189C48.4907 13.3256 48.5105 13.6274 48.6144 13.8303C49.0003 14.518 49.7078 14.9237 50.4401 14.9237C50.9051 14.9237 51.2515 14.617 53.567 13.3009V5.63208H55.2096V15.9429H53.7055L53.562 14.706C52.7902 15.6213 51.5335 16.2497 50.4351 16.2497C48.5055 16.2497 46.8431 14.6862 46.8431 12.821V5.63703L46.8481 5.63208Z" fill="#050142"/>
<path d="M59.8603 10.7282L57.1391 5.63708H58.9252L61.2605 10.1196H62.3341L64.6694 5.63708H66.3961L63.6749 10.7282L66.5545 15.943H64.7684L62.2946 11.3565H61.2209L58.7273 15.943H57.0006L59.8603 10.7282Z" fill="#050142"/>
<path d="M68.0787 3.23744V2.64868C68.0787 2.02033 68.524 1.61462 69.1722 1.61462C69.8203 1.61462 70.3101 2.02033 70.3101 2.64868V3.23744C70.3101 3.86579 69.845 4.2715 69.1722 4.2715C68.4993 4.2715 68.0787 3.86579 68.0787 3.23744ZM68.3607 5.63209H70.0034V15.9429H68.3607V5.63209Z" fill="#050142"/>
<path d="M75.3863 13.0387C75.3863 13.3454 75.3863 13.6275 75.5496 13.8699C76.0344 14.4982 76.6875 14.9237 77.4792 14.9237C77.8849 14.9237 78.251 14.7011 79.953 13.667L80.7644 14.2954C80.0767 15.5323 78.8348 16.2447 77.4792 16.2447C75.4308 16.2447 73.7437 14.6219 73.7437 12.633V6.95312H71.5123V5.63211H73.7437V2.95544H75.3863V5.63211H80.0123V6.95312H75.3863V13.0387Z" fill="#050142"/>
<path d="M84.1729 18.679C84.6182 18.679 84.8211 18.5998 85.0635 18.4365C85.6127 18.0506 85.8155 17.3827 86.241 15.9429H84.0294L81.046 5.63208H82.7084L85.2465 14.6615H86.5874L88.982 5.63208H90.585L87.6412 16.408C87.2949 17.6647 86.9535 18.6196 86.3647 19.149C85.8353 19.6586 85.0684 20 84.1531 20L84.1729 18.679Z" fill="#050142"/>
<path d="M92.3907 5.97351H93.0933C93.2071 5.97351 93.3061 5.98835 93.3803 6.02299C93.5238 6.08731 93.593 6.211 93.593 6.38911C93.593 6.48312 93.5732 6.55733 93.5336 6.6167C93.4941 6.67607 93.4446 6.7206 93.3753 6.76018C93.4347 6.78492 93.4792 6.81461 93.5089 6.85913C93.5386 6.89872 93.5584 6.96303 93.5584 7.05209V7.25989C93.5683 7.31926 93.5732 7.36379 93.5782 7.39348C93.593 7.44295 93.6128 7.47264 93.6474 7.48748V7.52211H93.3902C93.3902 7.52211 93.3753 7.49243 93.3753 7.47264C93.3753 7.45285 93.3654 7.41327 93.3654 7.34895L93.3506 7.09167C93.3506 6.99272 93.311 6.92345 93.2417 6.88882C93.2022 6.86903 93.1428 6.85913 93.0587 6.85913H92.5985V7.52211H92.3907V5.98341V5.97351ZM93.0686 6.68102C93.1626 6.68102 93.2368 6.66123 93.2962 6.62165C93.3555 6.58207 93.3803 6.5128 93.3803 6.4089C93.3803 6.30005 93.3407 6.22584 93.2665 6.18626C93.2269 6.16647 93.1675 6.15657 93.0983 6.15657H92.6035V6.68102H93.0735H93.0686Z" fill="#050142"/>
<path d="M92.9646 8.32854C92.1532 8.32854 91.4902 7.67051 91.4902 6.85415C91.4902 6.03779 92.1483 5.37976 92.9646 5.37976C93.781 5.37976 94.439 6.03779 94.439 6.85415C94.439 7.67051 93.781 8.32854 92.9646 8.32854ZM92.9646 5.54303C92.2423 5.54303 91.6535 6.1318 91.6535 6.85415C91.6535 7.5765 92.2423 8.16527 92.9646 8.16527C93.687 8.16527 94.2757 7.5765 94.2757 6.85415C94.2757 6.1318 93.687 5.54303 92.9646 5.54303Z" fill="#050142"/>
<path d="M80.3334 18.6888H84.2272V19.9999H82.3817C82.0502 19.9999 81.7237 19.9653 81.4021 19.896L80.3037 19.6635L80.3334 18.6838V18.6888Z" fill="#050142"/>
</g>
<defs>
<clipPath id="clip0_3096_10521">
<rect width="22.4493" height="18.2865" fill="white"/>
</clipPath>
<clipPath id="clip1_3096_10521">
<rect width="63.379" height="18.3854" fill="white" transform="translate(31.0598 1.61462)"/>
</clipPath>
</defs>
</svg>
