<svg width="116" height="103" viewBox="0 0 116 103" fill="none" xmlns="http://www.w3.org/2000/svg">
<g id="Group 106">
<path id="Vector" d="M77.4501 36.7384L13.3471 63.5716C10.1356 45.1612 17.7294 27.4798 32.9699 21.099C48.2103 14.7182 66.3216 21.6232 77.4501 36.7384Z" fill="#FFF59A"/>
<path id="Vector_2" d="M63.7608 102.031C79.5373 102.031 92.3268 89.1185 92.3268 73.1902C92.3268 57.262 79.5373 44.3496 63.7608 44.3496C47.9842 44.3496 35.1948 57.262 35.1948 73.1902C35.1948 89.1185 47.9842 102.031 63.7608 102.031Z" fill="#E4FFED"/>
<path id="Vector_3" d="M78.8908 5.27225L78.8887 5.27341C73.731 8.18505 71.9102 14.7266 74.8218 19.8843L91.9576 50.2389C94.8692 55.3966 101.411 57.2175 106.568 54.3058L106.571 54.3047C111.728 51.393 113.549 44.8515 110.637 39.6937L93.5017 9.33917C90.5901 4.18142 84.0485 2.3606 78.8908 5.27225Z" fill="#EBFDFF"/>
<path id="Vector_4" d="M62.6621 59.1826C62.6621 59.1826 99.2526 59.5119 98.9166 4.24805" stroke="#050142" stroke-width="0.549345" stroke-miterlimit="10"/>
<path id="Vector_5" d="M55.0244 82.0977C55.0244 82.0977 55.3537 45.5072 0.0898442 45.8432" stroke="#050142" stroke-width="0.549345" stroke-miterlimit="10"/>
<path id="Vector_6" d="M64.5849 69.0703C64.7365 69.0703 64.8593 68.9474 64.8593 68.7959C64.8593 68.6443 64.7365 68.5215 64.5849 68.5215C64.4334 68.5215 64.3105 68.6443 64.3105 68.7959C64.3105 68.9474 64.4334 69.0703 64.5849 69.0703Z" fill="#FFCEBE"/>
</g>
</svg>
