<svg width="20" height="21" viewBox="0 0 20 21" fill="none" xmlns="http://www.w3.org/2000/svg">
<g id="Power">
<path id="Vector" d="M10 2.375C8.39303 2.375 6.82214 2.85152 5.486 3.74431C4.14985 4.6371 3.10844 5.90605 2.49348 7.3907C1.87852 8.87535 1.71762 10.509 2.03112 12.0851C2.34463 13.6612 3.11846 15.1089 4.25476 16.2452C5.39106 17.3815 6.8388 18.1554 8.4149 18.4689C9.99099 18.7824 11.6247 18.6215 13.1093 18.0065C14.594 17.3916 15.8629 16.3502 16.7557 15.014C17.6485 13.6779 18.125 12.107 18.125 10.5C18.125 8.34512 17.269 6.27849 15.7452 4.75476C14.2215 3.23102 12.1549 2.375 10 2.375ZM9.375 5.5C9.375 5.33424 9.44085 5.17527 9.55806 5.05806C9.67527 4.94085 9.83424 4.875 10 4.875C10.1658 4.875 10.3247 4.94085 10.4419 5.05806C10.5592 5.17527 10.625 5.33424 10.625 5.5V10.5C10.625 10.6658 10.5592 10.8247 10.4419 10.9419C10.3247 11.0592 10.1658 11.125 10 11.125C9.83424 11.125 9.67527 11.0592 9.55806 10.9419C9.44085 10.8247 9.375 10.6658 9.375 10.5V5.5ZM10 16.75C8.65908 16.7501 7.35366 16.319 6.27657 15.5203C5.19947 14.7216 4.40782 13.5976 4.01854 12.3144C3.62926 11.0312 3.663 9.65688 4.11476 8.39434C4.56653 7.13181 5.41237 6.04804 6.52735 5.30312C6.59545 5.25496 6.67251 5.22092 6.75398 5.203C6.83545 5.18508 6.91968 5.18366 7.00171 5.1988C7.08373 5.21395 7.1619 5.24536 7.2316 5.29119C7.3013 5.33702 7.36112 5.39633 7.40753 5.46564C7.45395 5.53495 7.48602 5.61285 7.50186 5.69475C7.51769 5.77665 7.51698 5.86089 7.49975 5.9425C7.48252 6.02412 7.44912 6.10146 7.40154 6.16997C7.35395 6.23848 7.29313 6.29677 7.22266 6.34141C6.33065 6.93727 5.65392 7.80423 5.29244 8.81421C4.93095 9.8242 4.90388 10.9237 5.21521 11.9502C5.52655 12.9768 6.15978 13.876 7.02138 14.515C7.88299 15.1541 8.92728 15.4991 10 15.4991C11.0727 15.4991 12.117 15.1541 12.9786 14.515C13.8402 13.876 14.4735 12.9768 14.7848 11.9502C15.0961 10.9237 15.0691 9.8242 14.7076 8.81421C14.3461 7.80423 13.6694 6.93727 12.7773 6.34141C12.7069 6.29677 12.6461 6.23848 12.5985 6.16997C12.5509 6.10146 12.5175 6.02412 12.5003 5.9425C12.483 5.86089 12.4823 5.77665 12.4982 5.69475C12.514 5.61285 12.5461 5.53495 12.5925 5.46564C12.6389 5.39633 12.6987 5.33702 12.7684 5.29119C12.8381 5.24536 12.9163 5.21395 12.9983 5.1988C13.0803 5.18366 13.1646 5.18508 13.246 5.203C13.3275 5.22092 13.4046 5.25496 13.4727 5.30312C14.5876 6.04804 15.4335 7.13181 15.8852 8.39434C16.337 9.65688 16.3707 11.0312 15.9815 12.3144C15.5922 13.5976 14.8005 14.7216 13.7234 15.5203C12.6463 16.319 11.3409 16.7501 10 16.75Z" fill="white"/>
</g>
</svg>
