<svg width="21" height="21" viewBox="0 0 21 21" fill="none" xmlns="http://www.w3.org/2000/svg">
<path d="M17.625 9.52857V17.0286C17.625 17.3601 17.4933 17.678 17.2589 17.9125C17.0245 18.1469 16.7065 18.2786 16.375 18.2786H5.125C4.79348 18.2786 4.47554 18.1469 4.24112 17.9125C4.0067 17.678 3.875 17.3601 3.875 17.0286V9.52857C3.875 9.19705 4.0067 8.87911 4.24112 8.64469C4.47554 8.41026 4.79348 8.27857 5.125 8.27857H7C7.16576 8.27857 7.32473 8.34442 7.44194 8.46163C7.55915 8.57884 7.625 8.73781 7.625 8.90357C7.625 9.06933 7.55915 9.2283 7.44194 9.34551C7.32473 9.46272 7.16576 9.52857 7 9.52857H5.125V17.0286H16.375V9.52857H14.5C14.3342 9.52857 14.1753 9.46272 14.0581 9.34551C13.9408 9.2283 13.875 9.06933 13.875 8.90357C13.875 8.73781 13.9408 8.57884 14.0581 8.46163C14.1753 8.34442 14.3342 8.27857 14.5 8.27857H16.375C16.7065 8.27857 17.0245 8.41026 17.2589 8.64469C17.4933 8.87911 17.625 9.19705 17.625 9.52857ZM8.06719 6.22076L10.125 4.16216V11.4036C10.125 11.5693 10.1908 11.7283 10.3081 11.8455C10.4253 11.9627 10.5842 12.0286 10.75 12.0286C10.9158 12.0286 11.0747 11.9627 11.1919 11.8455C11.3092 11.7283 11.375 11.5693 11.375 11.4036V4.16216L13.4328 6.22076C13.5501 6.33803 13.7091 6.40392 13.875 6.40392C14.0409 6.40392 14.1999 6.33803 14.3172 6.22076C14.4345 6.10348 14.5003 5.94442 14.5003 5.77857C14.5003 5.61272 14.4345 5.45366 14.3172 5.33638L11.1922 2.21138C11.1341 2.15327 11.0652 2.10717 10.9893 2.07572C10.9135 2.04427 10.8321 2.02808 10.75 2.02808C10.6679 2.02808 10.5865 2.04427 10.5107 2.07572C10.4348 2.10717 10.3659 2.15327 10.3078 2.21138L7.18281 5.33638C7.06554 5.45366 6.99965 5.61272 6.99965 5.77857C6.99965 5.94442 7.06554 6.10348 7.18281 6.22076C7.30009 6.33803 7.45915 6.40392 7.625 6.40392C7.79085 6.40392 7.94991 6.33803 8.06719 6.22076Z" fill="white"/>
</svg>
