<svg width="20" height="20" viewBox="0 0 20 20" fill="none" xmlns="http://www.w3.org/2000/svg">
<path d="M15.9813 4.84525L13.9745 5.8677L4.28376 10.8037C4.25099 10.5537 4.23451 10.302 4.2344 10.0499C4.23573 9.04414 4.49978 8.05619 5.00041 7.18389C5.50104 6.3116 6.22087 5.58523 7.0886 5.07673C7.95633 4.56823 8.94185 4.29525 9.94755 4.28483C10.9532 4.2744 11.9442 4.5269 12.8223 5.01731L13.971 4.43204L14.1423 4.3446C13.0901 3.58086 11.8471 3.12292 10.5509 3.02141C9.25464 2.91989 7.95557 3.17875 6.79724 3.76936C5.63892 4.35998 4.66644 5.25937 3.9873 6.36811C3.30816 7.47686 2.9488 8.75179 2.94893 10.052C2.94893 10.2316 2.95575 10.4104 2.96938 10.5886C2.98848 10.8409 2.93252 11.0932 2.80856 11.3138C2.68459 11.5344 2.49815 11.7134 2.27271 11.8282L1.66699 12.1371V13.5777L3.45029 12.6688L4.0278 12.374L4.59684 12.0842L14.8129 6.87887L15.9609 6.29431L18.3337 5.085V3.64511L15.9813 4.84525ZM18.3337 6.5263L5.17717 13.2251L4.02921 13.8111L1.66699 15.0148V16.454L4.01299 15.2587L6.01982 14.2363L15.7204 9.29327C15.7532 9.54485 15.7697 9.79829 15.7698 10.052C15.7691 11.0589 15.5052 12.0481 15.0041 12.9215C14.5029 13.7949 13.7821 14.522 12.9131 15.0306C12.0441 15.5393 11.0572 15.8118 10.0504 15.8211C9.0435 15.8305 8.05169 15.5763 7.17342 15.0839L7.10291 15.1212L5.85763 15.7559C6.90965 16.5196 8.15233 16.9777 9.44837 17.0795C10.7444 17.1812 12.0434 16.9227 13.2017 16.3325C14.36 15.7423 15.3326 14.8433 16.0121 13.735C16.6915 12.6266 17.0513 11.352 17.0517 10.052C17.0517 9.87078 17.0447 9.68956 17.0313 9.51045C17.0122 9.25824 17.0681 9.00601 17.1919 8.78546C17.3157 8.56491 17.502 8.38587 17.7272 8.27082L18.3337 7.96197V6.5263Z" fill="black"/>
</svg>
