<svg width="49" height="48" viewBox="0 0 49 48" fill="none" xmlns="http://www.w3.org/2000/svg">
<path d="M24.5 4.5C20.6433 4.5 16.8731 5.64366 13.6664 7.78634C10.4596 9.92903 7.96027 12.9745 6.48436 16.5377C5.00845 20.1008 4.62228 24.0216 5.3747 27.8043C6.12711 31.5869 7.9843 35.0615 10.7114 37.7886C13.4386 40.5157 16.9131 42.3729 20.6957 43.1253C24.4784 43.8777 28.3992 43.4916 31.9623 42.0156C35.5255 40.5397 38.571 38.0404 40.7137 34.8336C42.8564 31.6269 44 27.8567 44 24C43.9945 18.83 41.9383 13.8732 38.2826 10.2174C34.6268 6.56167 29.6701 4.50546 24.5 4.5ZM33.0613 20.5613L22.5613 31.0613C22.4219 31.2007 22.2565 31.3114 22.0744 31.3868C21.8923 31.4623 21.6971 31.5012 21.5 31.5012C21.3029 31.5012 21.1077 31.4623 20.9256 31.3868C20.7435 31.3114 20.5781 31.2007 20.4388 31.0613L15.9388 26.5613C15.6573 26.2798 15.4992 25.898 15.4992 25.5C15.4992 25.102 15.6573 24.7202 15.9388 24.4387C16.2202 24.1573 16.602 23.9992 17 23.9992C17.3981 23.9992 17.7798 24.1573 18.0613 24.4387L21.5 27.8794L30.9388 18.4387C31.0781 18.2994 31.2436 18.1888 31.4257 18.1134C31.6078 18.038 31.8029 17.9992 32 17.9992C32.1971 17.9992 32.3923 18.038 32.5744 18.1134C32.7564 18.1888 32.9219 18.2994 33.0613 18.4387C33.2006 18.5781 33.3112 18.7436 33.3866 18.9257C33.462 19.1077 33.5008 19.3029 33.5008 19.5C33.5008 19.6971 33.462 19.8923 33.3866 20.0743C33.3112 20.2564 33.2006 20.4219 33.0613 20.5613Z" fill="#050142"/>
</svg>
