<svg width="20" height="20" viewBox="0 0 20 20" fill="none" xmlns="http://www.w3.org/2000/svg">
<path d="M17.9423 6.06705L7.94229 16.067C7.88425 16.1252 7.81531 16.1713 7.73944 16.2027C7.66357 16.2342 7.58224 16.2504 7.5001 16.2504C7.41797 16.2504 7.33664 16.2342 7.26077 16.2027C7.18489 16.1713 7.11596 16.1252 7.05792 16.067L2.68292 11.692C2.56564 11.5748 2.49976 11.4157 2.49976 11.2499C2.49976 11.084 2.56564 10.9249 2.68292 10.8077C2.80019 10.6904 2.95925 10.6245 3.1251 10.6245C3.29096 10.6245 3.45002 10.6904 3.56729 10.8077L7.5001 14.7413L17.0579 5.18267C17.1752 5.0654 17.3343 4.99951 17.5001 4.99951C17.666 4.99951 17.825 5.0654 17.9423 5.18267C18.0596 5.29995 18.1255 5.45901 18.1255 5.62486C18.1255 5.79071 18.0596 5.94977 17.9423 6.06705Z" fill="#050142"/>
</svg>
