<svg width="24" height="24" viewBox="0 0 24 24" fill="none" xmlns="http://www.w3.org/2000/svg">
<path fill-rule="evenodd" clip-rule="evenodd" d="M12 0C18.6274 0 24 5.37256 24 12C24 18.6274 18.6274 24 12 24C5.37256 24 0 18.6274 0 12C0 5.37256 5.37256 0 12 0ZM14.7419 3.55031C14.4713 3.46386 14.25 3.62447 14.25 3.90856V4.60725C14.25 4.79774 14.3936 5.01454 14.5724 5.08009C17.4447 6.13209 19.5 8.89285 19.5 12.125C19.5 15.3572 17.4447 18.1179 14.5724 19.1699C14.3763 19.2418 14.25 19.4339 14.25 19.6428V20.3415C14.25 20.6255 14.4713 20.7862 14.7419 20.6997C18.3716 19.54 21 16.1395 21 12.125C21 8.11054 18.3716 4.71002 14.7419 3.55031ZM9.75002 3.90856C9.75002 3.62447 9.52875 3.46386 9.25816 3.55031C5.62838 4.71002 3 8.11054 3 12.125C3 16.1395 5.62838 19.54 9.25816 20.6997C9.52875 20.7862 9.75002 20.6255 9.75002 20.3415V19.6428C9.75002 19.4523 9.60645 19.2354 9.42758 19.1699C6.55539 18.1179 4.5 15.3572 4.5 12.125C4.5 8.89285 6.55539 6.13209 9.42758 5.08009C9.60645 5.01454 9.75002 4.79774 9.75002 4.60725V3.90856ZM12.375 6.12504H11.625C11.4179 6.12504 11.25 6.29289 11.25 6.5V7.66179C9.7632 7.87318 8.80202 8.86263 8.80202 10.132C8.80202 11.7751 9.79529 12.4126 11.8918 12.6947C13.3141 12.9277 13.719 13.234 13.719 14.0435C13.719 14.8527 13.032 15.3922 12.0637 15.3922C10.7543 15.3922 10.3234 14.8192 10.1645 14.0776C10.1269 13.902 9.97642 13.7736 9.79675 13.7736H8.94132C8.72584 13.7736 8.55736 13.9676 8.5944 14.1799C8.81224 15.4281 9.61388 16.344 11.25 16.566V17.75C11.25 17.9571 11.4179 18.125 11.625 18.125H12.375C12.5821 18.125 12.75 17.9571 12.75 17.75V16.5654C14.2989 16.3193 15.2884 15.2411 15.2884 13.9085C15.2884 12.1552 14.2216 11.5665 12.1615 11.2847C10.6411 11.0639 10.3471 10.7082 10.3471 9.99704C10.3471 9.32282 10.8619 8.84442 11.8552 8.84442C12.7536 8.84442 13.2702 9.15798 13.4837 9.88099C13.5313 10.0424 13.6757 10.1564 13.844 10.1564H14.6328C14.8528 10.1564 15.024 9.95426 14.9771 9.73929C14.7273 8.59671 13.9573 7.91106 12.75 7.69478V6.5C12.75 6.29289 12.5821 6.12504 12.375 6.12504Z" fill="#2775CA"/>
</svg>
