<svg width="17" height="16" viewBox="0 0 17 16" fill="none" xmlns="http://www.w3.org/2000/svg">
<path d="M12.5244 4.5V13.5C12.5244 13.6326 12.4717 13.7598 12.378 13.8536C12.2842 13.9473 12.157 14 12.0244 14H3.02441C2.89181 14 2.76463 13.9473 2.67086 13.8536C2.57709 13.7598 2.52441 13.6326 2.52441 13.5V4.5C2.52441 4.36739 2.57709 4.24021 2.67086 4.14645C2.76463 4.05268 2.89181 4 3.02441 4H12.0244C12.157 4 12.2842 4.05268 12.378 4.14645C12.4717 4.24021 12.5244 4.36739 12.5244 4.5ZM14.0244 2H5.02441C4.89181 2 4.76463 2.05268 4.67086 2.14645C4.57709 2.24021 4.52441 2.36739 4.52441 2.5C4.52441 2.63261 4.57709 2.75979 4.67086 2.85355C4.76463 2.94732 4.89181 3 5.02441 3H13.5244V11.5C13.5244 11.6326 13.5771 11.7598 13.6709 11.8536C13.7646 11.9473 13.8918 12 14.0244 12C14.157 12 14.2842 11.9473 14.378 11.8536C14.4717 11.7598 14.5244 11.6326 14.5244 11.5V2.5C14.5244 2.36739 14.4717 2.24021 14.378 2.14645C14.2842 2.05268 14.157 2 14.0244 2Z" fill="white"/>
</svg>
