<svg width="24" height="24" viewBox="0 0 24 24" fill="none" xmlns="http://www.w3.org/2000/svg">
<path d="M19.5291 11.4406L15.0291 15.6757C14.8884 15.8081 14.6975 15.8825 14.4985 15.8825C14.2995 15.8825 14.1086 15.8081 13.9679 15.6757C13.8271 15.5432 13.7481 15.3636 13.7481 15.1763C13.7481 14.989 13.8271 14.8094 13.9679 14.6769L17.1882 11.6471H13.4672C11.6379 11.6466 9.8602 12.2184 8.41379 13.2725C6.96738 14.3266 5.93428 15.8033 5.47693 17.4703C5.4272 17.6516 5.30296 17.807 5.13154 17.9021C4.96012 17.9972 4.75556 18.0244 4.56287 17.9776C4.37017 17.9308 4.20512 17.8139 4.10403 17.6525C4.00293 17.4912 3.97408 17.2987 4.02381 17.1174C4.56344 15.1468 5.7842 13.4011 7.49386 12.1552C9.20352 10.9092 11.3049 10.2339 13.4672 10.2354H17.1901L13.9679 7.20561C13.8982 7.14003 13.8429 7.06218 13.8052 6.97649C13.7675 6.89081 13.7481 6.79897 13.7481 6.70623C13.7481 6.61349 13.7675 6.52165 13.8052 6.43597C13.8429 6.35028 13.8982 6.27243 13.9679 6.20685C14.1086 6.07441 14.2995 6 14.4985 6C14.597 6 14.6946 6.01827 14.7857 6.05376C14.8767 6.08925 14.9594 6.14127 15.0291 6.20685L19.5291 10.4419C19.5989 10.5074 19.6542 10.5853 19.6919 10.671C19.7297 10.7567 19.7491 10.8485 19.7491 10.9413C19.7491 11.034 19.7297 11.1259 19.6919 11.2116C19.6542 11.2972 19.5989 11.3751 19.5291 11.4406Z" fill="#3A21D5"/>
</svg>
