<svg width="16" height="12" viewBox="0 0 16 12" fill="none" xmlns="http://www.w3.org/2000/svg">
<path d="M15.5291 5.44065L11.0291 9.67568C10.8884 9.80812 10.6975 9.88253 10.4985 9.88253C10.2995 9.88253 10.1086 9.80812 9.96787 9.67568C9.82714 9.54323 9.74808 9.3636 9.74808 9.1763C9.74808 8.98899 9.82714 8.80936 9.96787 8.67692L13.1882 5.6471H9.46724C7.63786 5.64663 5.8602 6.2184 4.41379 7.27251C2.96738 8.32662 1.93428 9.80328 1.47693 11.4703C1.4272 11.6516 1.30296 11.807 1.13154 11.9021C0.960123 11.9972 0.755565 12.0244 0.562868 11.9776C0.370172 11.9308 0.205123 11.8139 0.104029 11.6525C0.00293488 11.4912 -0.0259225 11.2987 0.0238056 11.1174C0.563444 9.14676 1.7842 7.40107 3.49386 6.15515C5.20352 4.90924 7.30494 4.23388 9.46724 4.23543H13.1901L9.96787 1.20561C9.89819 1.14003 9.84291 1.06218 9.8052 0.976494C9.76749 0.890811 9.74808 0.798975 9.74808 0.706231C9.74808 0.613488 9.76749 0.521652 9.8052 0.435968C9.84291 0.350284 9.89819 0.27243 9.96787 0.20685C10.1086 0.0744062 10.2995 0 10.4985 0C10.597 0 10.6946 0.0182672 10.7857 0.0537587C10.8767 0.0892501 10.9594 0.141271 11.0291 0.20685L15.5291 4.44188C15.5989 4.50744 15.6542 4.58528 15.6919 4.67097C15.7297 4.75666 15.7491 4.84851 15.7491 4.94126C15.7491 5.03402 15.7297 5.12587 15.6919 5.21156C15.6542 5.29725 15.5989 5.37509 15.5291 5.44065Z" fill="#050142"/>
</svg>
