<svg width="25" height="24" viewBox="0 0 25 24" fill="none" xmlns="http://www.w3.org/2000/svg">
<rect width="25" height="24" fill="#1E1E1E"/>
<g id="Group 77">
<g id="Rectangle 119">
<rect x="-405" y="-31" width="451" height="399" rx="20" fill="white"/>
<rect x="-404.5" y="-30.5" width="450" height="398" rx="19.5" stroke="#050142" stroke-opacity="0.1"/>
</g>
<g id="Frame 237">
<g id="Frame 236">
<g id="Frame 235">
<g id="X">
<path id="Vector" d="M19.781 18.2193C19.8507 18.289 19.906 18.3717 19.9437 18.4628C19.9814 18.5538 20.0008 18.6514 20.0008 18.7499C20.0008 18.8485 19.9814 18.9461 19.9437 19.0371C19.906 19.1281 19.8507 19.2109 19.781 19.2806C19.7114 19.3502 19.6286 19.4055 19.5376 19.4432C19.4465 19.4809 19.349 19.5003 19.2504 19.5003C19.1519 19.5003 19.0543 19.4809 18.9632 19.4432C18.8722 19.4055 18.7895 19.3502 18.7198 19.2806L12.5004 13.0602L6.28104 19.2806C6.14031 19.4213 5.94944 19.5003 5.75042 19.5003C5.55139 19.5003 5.36052 19.4213 5.21979 19.2806C5.07906 19.1398 5 18.949 5 18.7499C5 18.5509 5.07906 18.36 5.21979 18.2193L11.4401 11.9999L5.21979 5.78055C5.07906 5.63982 5 5.44895 5 5.24993C5 5.05091 5.07906 4.86003 5.21979 4.7193C5.36052 4.57857 5.55139 4.49951 5.75042 4.49951C5.94944 4.49951 6.14031 4.57857 6.28104 4.7193L12.5004 10.9396L18.7198 4.7193C18.8605 4.57857 19.0514 4.49951 19.2504 4.49951C19.4494 4.49951 19.6403 4.57857 19.781 4.7193C19.9218 4.86003 20.0008 5.05091 20.0008 5.24993C20.0008 5.44895 19.9218 5.63982 19.781 5.78055L13.5607 11.9999L19.781 18.2193Z" fill="#050142"/>
</g>
</g>
</g>
</g>
</g>
</svg>
