<svg width="33" height="32" viewBox="0 0 33 32" fill="none" xmlns="http://www.w3.org/2000/svg">
<g id="Badge_Dai 1" clip-path="url(#clip0_1285_1785)">
<path id="Vector" d="M16.5 32C25.3366 32 32.5 24.8366 32.5 16C32.5 7.16344 25.3366 0 16.5 0C7.66344 0 0.5 7.16344 0.5 16C0.5 24.8366 7.66344 32 16.5 32Z" fill="url(#paint0_linear_1285_1785)"/>
<path id="Vector_2" d="M25.9881 13.3599H24.0895C23.0441 10.4586 20.2335 8.46924 16.5268 8.46924H10.4308V13.3599H8.31348V15.1146H10.4308V16.9546H8.31348V18.7092H10.4308V23.5412H16.5268C20.1908 23.5412 22.9801 21.5679 24.0521 18.7092H25.9881V16.9546H24.4788C24.5161 16.6452 24.5375 16.3252 24.5375 16.0052V15.9626C24.5375 15.6746 24.5215 15.3919 24.4948 15.1146H25.9935V13.3599H25.9881ZM12.1375 10.0319H16.5268C19.2468 10.0319 21.2681 11.3706 22.2015 13.3546H12.1375V10.0319ZM16.5268 21.9626H12.1375V18.7039H22.1908C21.2521 20.6559 19.2361 21.9626 16.5268 21.9626ZM22.7721 16.0426C22.7721 16.3519 22.7508 16.6559 22.7081 16.9492H12.1375V15.1092H22.7135C22.7508 15.3972 22.7721 15.6959 22.7721 15.9999V16.0426Z" fill="white"/>
</g>
<defs>
<linearGradient id="paint0_linear_1285_1785" x1="16.5" y1="-4.53333" x2="16.5" y2="35.36" gradientUnits="userSpaceOnUse">
<stop stop-color="#F9A606"/>
<stop offset="1" stop-color="#FBCC5F"/>
</linearGradient>
<clipPath id="clip0_1285_1785">
<rect width="32" height="32" fill="white" transform="translate(0.5)"/>
</clipPath>
</defs>
</svg>
