<svg width="33" height="32" viewBox="0 0 33 32" fill="none" xmlns="http://www.w3.org/2000/svg">
<path id="Logo" fill-rule="evenodd" clip-rule="evenodd" d="M16.5 0C25.3366 0 32.5 7.16342 32.5 16C32.5 24.8366 25.3366 32 16.5 32C7.66342 32 0.5 24.8366 0.5 16C0.5 7.16342 7.66342 0 16.5 0ZM20.1558 4.73374C19.7951 4.61848 19.5 4.83263 19.5 5.21142V6.143C19.5 6.39699 19.6915 6.68605 19.9299 6.77346C23.7595 8.17613 26.5 11.8571 26.5 16.1667C26.5 20.4762 23.7595 24.1572 19.9299 25.5599C19.6684 25.6557 19.5 25.9118 19.5 26.1904V27.1219C19.5 27.5007 19.7951 27.7149 20.1558 27.5996C24.9955 26.0533 28.5 21.5193 28.5 16.1667C28.5 10.8141 24.9955 6.28003 20.1558 4.73374ZM13.5 5.21142C13.5 4.83263 13.205 4.61848 12.8442 4.73374C8.0045 6.28003 4.5 10.8141 4.5 16.1667C4.5 21.5193 8.0045 26.0533 12.8442 27.5996C13.205 27.7149 13.5 27.5007 13.5 27.1219V26.1904C13.5 25.9364 13.3086 25.6472 13.0701 25.5599C9.24052 24.1572 6.5 20.4762 6.5 16.1667C6.5 11.8571 9.24052 8.17613 13.0701 6.77346C13.3086 6.68605 13.5 6.39699 13.5 6.143V5.21142ZM17 8.16671H16C15.7239 8.16671 15.5 8.39053 15.5 8.66667V10.2157C13.5176 10.4976 12.236 11.8168 12.236 13.5093C12.236 15.7001 13.5604 16.5501 16.3557 16.9263C18.2522 17.237 18.792 17.6454 18.792 18.7246C18.792 19.8035 17.876 20.5229 16.5849 20.5229C14.8391 20.5229 14.2646 19.759 14.0527 18.7702C14.0025 18.536 13.8019 18.3647 13.5623 18.3647H12.4218C12.1344 18.3647 11.9098 18.6235 11.9592 18.9065C12.2496 20.5709 13.3185 21.792 15.5 22.088V23.6667C15.5 23.9428 15.7239 24.1667 16 24.1667H17C17.2762 24.1667 17.5 23.9428 17.5 23.6667V22.0872C19.5652 21.7591 20.8846 20.3215 20.8846 18.5447C20.8846 16.2069 19.4621 15.4221 16.7153 15.0462C14.6882 14.7519 14.2961 14.2776 14.2961 13.3294C14.2961 12.4304 14.9825 11.7926 16.3069 11.7926C17.5047 11.7926 18.1936 12.2106 18.4782 13.1747C18.5417 13.3898 18.7342 13.5419 18.9586 13.5419H20.0105C20.3037 13.5419 20.5321 13.2723 20.4694 12.9857C20.1365 11.4623 19.1097 10.5481 17.5 10.2597V8.66667C17.5 8.39053 17.2762 8.16671 17 8.16671Z" fill="#2775CA"/>
</svg>
