<?xml version="1.0" standalone="no"?>
<!DOCTYPE svg PUBLIC "-//W3C//DTD SVG 20010904//EN"
 "http://www.w3.org/TR/2001/REC-SVG-20010904/DTD/svg10.dtd">
<svg version="1.0" xmlns="http://www.w3.org/2000/svg"
 width="3840.000000pt" height="3840.000000pt" viewBox="0 0 3840.000000 3840.000000"
 preserveAspectRatio="xMidYMid meet">

<g transform="translate(0.000000,3840.000000) scale(0.100000,-0.100000)"
fill="#000000" stroke="none">
<path d="M18670 38394 c-288 -10 -617 -27 -860 -44 -3677 -263 -7180 -1574
-10135 -3793 -1300 -976 -2488 -2132 -3507 -3412 -2184 -2744 -3575 -6035
-4012 -9495 -110 -868 -150 -1526 -150 -2450 0 -633 7 -868 44 -1390 263
-3677 1575 -7182 3793 -10135 789 -1050 1707 -2041 2697 -2909 3119 -2737
7019 -4385 11135 -4705 3127 -244 6216 259 9065 1476 637 273 1344 623 1943
965 1864 1062 3538 2428 4951 4038 2528 2880 4132 6435 4611 10212 109 867
149 1523 149 2448 0 642 -7 857 -44 1390 -223 3119 -1192 6097 -2856 8771
-150 241 -473 725 -644 964 -868 1217 -1874 2330 -2990 3309 -3154 2768 -7103
4420 -11270 4715 -157 11 -377 25 -490 31 -199 11 -1239 21 -1430 14z m1305
-8188 c951 -74 1806 -242 2660 -523 904 -297 1746 -698 2550 -1216 230 -148
486 -328 483 -339 -3 -7 -1366 -707 -1883 -965 l-171 -86 -179 96 c-1098 584
-2313 931 -3605 1029 -230 17 -1017 17 -1240 0 -732 -57 -1382 -179 -2040
-382 -1666 -514 -3161 -1508 -4273 -2842 -1117 -1341 -1821 -2968 -2031 -4698
-75 -612 -86 -1287 -31 -1886 29 -317 36 -366 54 -361 19 5 15175 7723 20366
10371 880 449 1601 816 1602 816 2 0 2 -507 1 -1126 l-3 -1126 -1210 -617
c-665 -339 -1849 -943 -2630 -1340 -4130 -2104 -17776 -9057 -18430 -9391
-418 -213 -1340 -683 -2050 -1045 -709 -361 -1395 -711 -1522 -777 l-233 -119
0 1128 0 1128 491 250 c522 266 603 310 731 402 97 69 288 250 369 349 231
283 383 632 435 1000 18 132 16 387 -6 754 -8 127 -10 351 -7 640 5 455 12
590 48 950 304 3079 1883 5885 4354 7741 1629 1224 3569 1973 5605 2164 133
12 294 23 565 39 168 10 1035 -3 1230 -18z m12263 -6618 l-3 -1122 -501 -256
c-557 -284 -602 -309 -747 -418 -384 -289 -651 -716 -753 -1207 -25 -119 -28
-149 -28 -365 -1 -129 5 -355 13 -501 10 -187 12 -391 8 -680 -6 -427 -13
-567 -48 -919 -304 -3079 -1882 -5884 -4354 -7741 -1629 -1224 -3571 -1974
-5605 -2164 -322 -30 -450 -36 -860 -42 -654 -9 -1164 24 -1795 118 -1692 250
-3354 918 -4739 1904 l-110 78 90 45 c49 25 511 260 1028 523 516 264 941 479
943 479 3 0 85 -43 182 -95 1519 -812 3297 -1173 5026 -1019 1810 160 3518
855 4928 2006 444 362 908 826 1279 1280 587 716 1092 1585 1430 2461 491
1272 689 2663 572 4017 -17 199 -40 399 -47 406 -2 3 -3284 -1666 -7293 -3709
-4009 -2043 -8837 -4503 -10729 -5467 -1892 -963 -3558 -1813 -3703 -1887
l-262 -134 2 1128 3 1128 1630 830 c897 457 2172 1107 2835 1445 2943 1502
21596 10999 21603 10999 4 1 6 -504 5 -1121z"/>
</g>
</svg>
