<svg width="40" height="32" viewBox="0 0 40 32" fill="none" xmlns="http://www.w3.org/2000/svg">
<g id="logo (4) 3" clip-path="url(#clip0_1285_1776)">
<path id="Vector" fill-rule="evenodd" clip-rule="evenodd" d="M8.97164 0.306641H31.5733C32.1125 0.306641 32.6108 0.586095 32.8797 1.03947L39.4646 12.1394C39.806 12.715 39.7046 13.4416 39.2175 13.9083L21.0927 31.2784C20.5055 31.841 19.561 31.841 18.9739 31.2784L0.873683 13.9318C0.375291 13.4542 0.281965 12.7064 0.648457 12.1272L7.68706 1.00385C7.96119 0.57065 8.44763 0.306641 8.97164 0.306641ZM28.655 5.26237V8.37683H22.2167V10.5362C26.7385 10.7669 30.1311 11.7147 30.1562 12.8507L30.1561 15.2189C30.1309 16.3549 26.7385 17.3026 22.2167 17.5334V22.8327H17.9416V17.5334C13.4198 17.3026 10.0272 16.3549 10.002 15.2189L10.0022 12.8507C10.0274 11.7147 13.4198 10.7669 17.9416 10.5362V8.37683H11.5033V5.26237H28.655ZM20.0792 15.9064C24.9047 15.9064 28.9381 15.105 29.9252 14.0348C29.0881 13.1272 26.0605 12.413 22.2167 12.2168V14.4777C21.5278 14.5128 20.8126 14.5314 20.0792 14.5314C19.3457 14.5314 18.6305 14.5128 17.9416 14.4777V12.2168C14.0978 12.413 11.0702 13.1272 10.2331 14.0348C11.2202 15.105 15.2536 15.9064 20.0792 15.9064Z" fill="#009393"/>
</g>
<defs>
<clipPath id="clip0_1285_1776">
<rect width="39.4667" height="32" fill="white" transform="translate(0.266602)"/>
</clipPath>
</defs>
</svg>
